<svg xmlns="http://www.w3.org/2000/svg" xml:space="preserve" width="32" height="40" viewBox="0 0 8.467 10.583"><path d="m102.044 114.913 3.69-4.432h-2.38l.476-3.783-3.347 4.842h2.037zm-.966 1.124.53-3.704h-2.646l4.762-6.879h1.058l-.529 4.233h3.175l-5.291 6.35zm2.024-5.225z" style="stroke-width:.0132292;fill:#000;fill-opacity:1" transform="translate(-98.962 -105.454)"/><path d="M11.877 34.973c0-.124.378-2.855.84-6.07.463-3.214.841-5.875.841-5.912 0-.038-1.693-.095-3.763-.126l-3.764-.058 5.998-8.678c3.3-4.773 6.036-8.642 6.08-8.597.046.045-.298 3.05-.763 6.678-.464 3.627-.845 6.668-.845 6.757 0 .09 1.988.162 4.418.162h4.418L19 26.749c-6.926 8.326-7.122 8.553-7.122 8.224z" style="fill:#ffd000;fill-opacity:1;stroke:#000;stroke-width:0;stroke-opacity:1;stroke-dasharray:none" transform="scale(.26458)"/></svg>