<?xml version="1.0" encoding="UTF-8" standalone="no"?>
<svg
   height="47.7467"
   viewBox="0 -960 640 954.934"
   width="32"
   version="1.1"
   id="svg134"
   sodipodi:docname="logo.svg"
   inkscape:version="1.2.2 (b0a8486, 2022-12-01)"
   xmlns:inkscape="http://www.inkscape.org/namespaces/inkscape"
   xmlns:sodipodi="http://sodipodi.sourceforge.net/DTD/sodipodi-0.dtd"
   xmlns="http://www.w3.org/2000/svg"
   xmlns:svg="http://www.w3.org/2000/svg">
  <defs
     id="defs138" />
  <sodipodi:namedview
     id="namedview136"
     pagecolor="#505050"
     bordercolor="#eeeeee"
     borderopacity="1"
     inkscape:showpageshadow="0"
     inkscape:pageopacity="0"
     inkscape:pagecheckerboard="0"
     inkscape:deskcolor="#505050"
     showgrid="false"
     inkscape:zoom="6.9532167"
     inkscape:cx="38.255675"
     inkscape:cy="26.894027"
     inkscape:window-width="1638"
     inkscape:window-height="884"
     inkscape:window-x="27"
     inkscape:window-y="312"
     inkscape:window-maximized="0"
     inkscape:current-layer="svg134" />
  <path
     d="m 415,-5.066 v -239 l -108,-99 -42,188 -265,-55 11,-56 199,40 73,-369 -100,47 v 134 h -60 v -175 l 164,-69 c 21.33333,-9.33333 36.5,-15.16667 45.5,-17.5 9,-2.33333 18.16667,-3.5 27.5,-3.5 13.33333,0 25.16667,2.83333 35.5,8.5 10.33333,5.66667 19.16667,14.16667 26.5,25.5 l 42,67 c 17.33333,28 41,52.33333 71,73 30,20.66667 65,31 105,31 v 60 c -44.66667,0 -84.5,-10.33333 -119.5,-31 -35,-20.66667 -67.5,-51.66667 -97.5,-93 l -39,158 91,84 v 291 z m -7.94365,-692.69923 c -20,0 -37.16667,-7.16667 -51.5,-21.5 -14.33333,-14.33334 -21.5,-31.5 -21.5,-51.5 0,-20 7.16667,-37.16667 21.5,-51.5 14.33333,-14.33334 31.5,-21.5 51.5,-21.5 20,0 37.16667,7.16666 51.5,21.5 14.33333,14.33333 21.5,31.5 21.5,51.5 0,20 -7.16667,37.16666 -21.5,51.5 -14.33333,14.33333 -31.5,21.5 -51.5,21.5 z"
     id="path132"
     sodipodi:nodetypes="cccccccccccccsssccsccscccccsssssssss"
     style="fill:#000000;fill-opacity:1" />
  <path
     d="m 328.45359,-727.53046 h -33.34145 c -6.66099,0 -12.27449,-2.2832 -16.84051,-6.8495 -4.56632,-4.566 -6.84948,-10.1795 -6.84948,-16.8405 v -73.65897 c 0,-18.71802 3.50963,-36.26617 10.52888,-52.64444 7.01926,-16.37824 16.67074,-30.70917 28.95443,-42.9928 12.28369,-12.28363 26.61467,-21.93513 42.99292,-28.95443 16.37826,-7.0192 33.92639,-10.5289 52.6444,-10.5289 18.71802,0 36.26616,3.5097 52.64441,10.5289 16.37826,7.0193 30.70923,16.6708 42.99292,28.95443 12.28373,12.28363 21.9352,26.61456 28.9544,42.9928 7.01927,16.37827 10.5289,33.92642 10.5289,52.64444 v 73.65897 c 0,6.661 -2.283,12.2745 -6.849,16.8405 -4.56633,4.5663 -10.18,6.8495 -16.841,6.8495 h -33.34142 v -95.19863 h 47.37992 v -2.15034 c 0,-34.95211 -12.16903,-64.60172 -36.5071,-88.94884 -24.33779,-24.34683 -53.9763,-36.52033 -88.91552,-36.52033 -34.93921,0 -64.59337,12.1735 -88.96246,36.52033 -24.36881,24.34712 -36.55321,53.99673 -36.55321,88.94884 v 2.15034 h 47.37997 z m -9.65148,-85.54716 h -37.72849 v 61.85716 c 0,3.5096 1.46235,6.7268 4.38704,9.6515 2.92469,2.9247 6.14185,4.387 9.65148,4.387 h 23.68997 z m 175.4814,0 v 75.89566 h 23.6899 c 3.50967,0 6.72683,-1.4623 9.6515,-4.387 2.92467,-2.9247 4.387,-6.1419 4.387,-9.6515 v -61.85716 z m 0,0 h 37.7284 z m -175.4814,0 h -37.72849 z"
     id="path776"
     style="stroke-width:0.438704"
     sodipodi:nodetypes="cscssssssssssssscccssscscccccsssccccssscccccccc" />
  <path
     style="fill:#1ed760;fill-opacity:1;stroke:#000000;stroke-width:0"
     d="m 293.41229,-737.65621 c -4.43462,-0.7642 -8.94084,-4.35268 -10.89322,-8.67478 -1.0038,-2.22202 -1.034,-3.21742 -1.0448,-34.44914 l -0.0112,-32.16102 h 18.55932 18.55932 v 37.88135 37.88137 l -11.5678,-0.064 c -6.36228,-0.034 -12.48304,-0.2214 -13.60168,-0.4142 z"
     id="path1139" />
  <path
     style="fill:#1ed760;fill-opacity:1;stroke:#000000;stroke-width:0"
     d="m 494.51397,-775.00972 v -37.93143 h 18.55932 18.55934 l -0.0112,32.16102 c -0.0108,31.23172 -0.042,32.22712 -1.0448,34.44914 -1.3412,2.96912 -4.14878,5.85112 -7.3339,7.52832 -2.5215,1.3278 -2.64988,1.3404 -15.6356,1.5316 l -13.09322,0.192 z"
     id="path1141" />
  <rect
     style="fill:#000000;fill-opacity:1;stroke:#000000;stroke-width:0"
     id="rect12281"
     width="640"
     height="21.374685"
     x="0"
     y="-26.440641" />
  <path
     d="m 195.37562,-755.55932 q -7.221,0 -12.3155,-5.0945 -5.0945,-5.0945 -5.0945,-12.3155 0,-7.22101 5.0945,-12.31551 5.0945,-5.0945 12.3155,-5.0945 3.97943,0 7.62724,1.57519 3.64781,1.57519 6.13496,4.72557 v -70.30325 h 29.84572 v 12.60153 h -26.19791 v 68.81097 q 0,7.221 -5.0945,12.3155 -5.0945,5.0945 -12.31551,5.0945 z"
     id="path12659"
     style="stroke-width:0.16581" />
  <path
     d="m 113.00274,-767.5977 q -7.221,0 -12.3155,-5.0945 -5.094502,-5.0945 -5.094502,-12.3155 0,-7.22101 5.094502,-12.31551 5.0945,-5.0945 12.3155,-5.0945 3.97943,0 7.62724,1.57519 3.64781,1.57519 6.13496,4.72557 v -70.30325 h 29.84572 v 12.60153 h -26.19791 v 68.81097 q 0,7.221 -5.0945,12.3155 -5.0945,5.0945 -12.31551,5.0945 z"
     id="path12659-2"
     style="stroke-width:0.16581" />
  <path
     d="m 30.629856,-732.58875 q -7.221,0 -12.3155,-5.0945 -5.0945,-5.0945 -5.0945,-12.3155 0,-7.22101 5.0945,-12.31551 5.0945,-5.0945 12.3155,-5.0945 3.97943,0 7.62724,1.57519 3.64781,1.57519 6.13496,4.72557 v -70.30325 h 29.84572 v 12.60153 h -26.19791 v 68.81097 q 0,7.221 -5.0945,12.3155 -5.0945,5.0945 -12.31551,5.0945 z"
     id="path12659-1"
     style="stroke-width:0.16581" />
</svg>
