<?xml version="1.0" encoding="UTF-8" standalone="no"?>
<!-- Created with Inkscape (http://www.inkscape.org/) -->

<svg
   width="20.997976mm"
   height="21.460529mm"
   viewBox="0 0 20.997976 21.460529"
   version="1.1"
   id="svg5"
   xml:space="preserve"
   inkscape:version="1.2.2 (b0a8486, 2022-12-01)"
   sodipodi:docname="logo.svg"
   xmlns:inkscape="http://www.inkscape.org/namespaces/inkscape"
   xmlns:sodipodi="http://sodipodi.sourceforge.net/DTD/sodipodi-0.dtd"
   xmlns="http://www.w3.org/2000/svg"
   xmlns:svg="http://www.w3.org/2000/svg"><sodipodi:namedview
     id="namedview7"
     pagecolor="#505050"
     bordercolor="#eeeeee"
     borderopacity="1"
     inkscape:showpageshadow="0"
     inkscape:pageopacity="0"
     inkscape:pagecheckerboard="0"
     inkscape:deskcolor="#505050"
     inkscape:document-units="mm"
     showgrid="false"
     inkscape:zoom="1.1893044"
     inkscape:cx="90.38897"
     inkscape:cy="187.08415"
     inkscape:window-width="1309"
     inkscape:window-height="1057"
     inkscape:window-x="0"
     inkscape:window-y="25"
     inkscape:window-maximized="0"
     inkscape:current-layer="layer1" /><defs
     id="defs2" /><g
     inkscape:label="Layer 1"
     inkscape:groupmode="layer"
     id="layer1"
     transform="translate(-76.836764,-84.754411)"><path
       d="m 92.195478,93.168162 q -0.57613,0 -0.982596,-0.406467 -0.406466,-0.406466 -0.406466,-0.982596 0,-0.57613 0.406466,-0.982596 0.406466,-0.406466 0.982596,-0.406466 0.3175,0 0.608542,0.125677 0.291042,0.125677 0.489479,0.377031 v -5.609167 h 2.38125 v 1.005417 h -2.090208 v 5.490104 q 0,0.57613 -0.406466,0.982596 -0.406467,0.406467 -0.982597,0.406467 z"
       id="path132"
       style="stroke-width:0.0132292" /><path
       d="m 89.73851,99.794354 q 0.42333,0 0.82682,0.16536 0.40349,0.165366 0.73422,0.456406 l 4.84187,4.63021 h 0.79375 q 0.25863,0 0.43359,-0.17496 0.17496,-0.17496 0.17496,-0.43359 0,-0.11792 -0.0215,-0.2506 -0.0215,-0.13266 -0.15049,-0.26533 l -2.42093,-2.40771 -0.9525,-2.883956 -1.87854,0.46302 q -0.15875,0.0397 -0.27782,-0.0547 -0.11906,-0.0944 -0.11906,-0.24953 v -2.01083 l -0.47625,-0.23813 -2.10344,2.83104 q -0.0794,0.0926 -0.13229,0.19844 -0.0529,0.10583 -0.0926,0.2249 z m 0,0.291036 h -0.84667 q 0.0265,0.19844 0.11245,0.37274 0.086,0.17432 0.23151,0.31517 l 4.36562,3.96875 q 0.15875,0.15875 0.35719,0.23151 0.19844,0.0728 0.41011,0.0728 h 1.34937 l -4.61698,-4.41855 q -0.27781,-0.26458 -0.6327,-0.40349 -0.35488,-0.1389 -0.7299,-0.1389 z m 4.63021,5.25198 q -0.26459,0 -0.50933,-0.0926 -0.24474,-0.0926 -0.44317,-0.27781 l -4.29948,-3.9026 q -0.41011,-0.38365 -0.46302,-0.92605 -0.0529,-0.542386 0.27781,-0.992176 l 2.05052,-2.72521 q 0.0794,-0.10583 0.20505,-0.13891 0.12568,-0.0331 0.24474,0.0331 l 0.38365,0.1852 q 0.10583,0.0529 0.15213,0.13891 0.0463,0.086 0.0463,0.19182 v 1.99761 l 1.83886,-0.47625 q 0.14552,-0.0397 0.26458,0.0331 0.11906,0.0728 0.17198,0.21828 l 0.91281,2.738436 2.36802,2.36802 q 0.15875,0.15875 0.21167,0.34396 0.0529,0.18521 0.0529,0.38364 0,0.37042 -0.25797,0.635 -0.25797,0.26459 -0.64161,0.26459 z"
       id="path141"
       style="stroke-width:0.0132292" /><path
       d="m 78.653699,92.638995 h -0.972775 q -0.291512,0 -0.491341,-0.199829 -0.199841,-0.199838 -0.199841,-0.491348 v -3.251111 q 0,-0.819184 0.307192,-1.535962 0.307192,-0.716778 0.844778,-1.254369 0.537586,-0.537581 1.254367,-0.844773 0.716782,-0.307192 1.53596,-0.307192 0.819179,0 1.53596,0.307192 0.716782,0.307192 1.254368,0.844773 0.537586,0.537591 0.844777,1.254369 0.307192,0.716778 0.307192,1.535962 v 3.251111 q 0,0.29151 -0.199828,0.491348 -0.199841,0.199829 -0.491353,0.199829 h -0.972776 v -2.777523 h 1.382365 v -1.164765 q 0,-1.529654 -1.065137,-2.595189 -1.065124,-1.065516 -2.594211,-1.065516 -1.529086,0 -2.59558,1.065516 -1.066481,1.065535 -1.066481,2.595189 v 1.164765 h 1.382364 z m -0.281593,-2.495928 h -1.100771 v 1.804751 q 0,0.153599 0.127996,0.281595 0.127997,0.127995 0.281593,0.127995 h 0.691182 z m 5.119867,0 v 2.214341 h 0.691182 q 0.153596,0 0.281591,-0.127995 0.127998,-0.127996 0.127998,-0.281595 v -1.804751 z m 0,0 h 1.100771 z m -5.119867,0 h -1.100771 z"
       id="path346"
       style="stroke-width:0.0127997" /><path
       d="m 82.14166,106.21494 v -2.9501 l -1.772708,-1.66688 -0.582084,2.6326 -2.950104,-0.60854 0.06615,-0.25135 2.566458,0.51594 1.058334,-5.476885 -1.852084,0.80698 v 1.666885 h -0.291041 v -1.878555 l 2.143125,-0.87312 q 0.277812,-0.11906 0.416718,-0.15875 0.138907,-0.0397 0.257969,-0.0397 0.171979,0 0.324115,0.0926 0.152135,0.0926 0.257968,0.25135 l 0.542396,0.8599 q 0.330729,0.52916 0.919427,0.939275 0.588698,0.4101 1.316302,0.48948 v 0.29104 q -0.701145,-0.0529 -1.422135,-0.50271 -0.72099,-0.449795 -1.303073,-1.481675 l -0.582083,2.778135 1.177396,1.13771 v 3.42635 z m -0.145521,-9.181045 q -0.343958,0 -0.582083,-0.23813 -0.238125,-0.23812 -0.238125,-0.58208 0,-0.34396 0.238125,-0.58208 0.238125,-0.23813 0.582083,-0.23813 0.343958,0 0.582083,0.23813 0.238125,0.23812 0.238125,0.58208 0,0.34396 -0.238125,0.58208 -0.238125,0.23813 -0.582083,0.23813 z"
       id="path355"
       style="stroke-width:0.0132292" /></g></svg>
