<svg xmlns="http://www.w3.org/2000/svg" xml:space="preserve" width="39.763" height="31.95" viewBox="0 0 10.521 8.453"><path d="M98.485 148.027q.304.304.88.284.575-.02.84-.43l2.857-4.484-4.431 2.897q-.397.265-.424.847-.026.582.278.886zm.94-6.27q.754 0 1.574.244.82.245 1.574.84l-.688.49q-.595-.397-1.277-.59-.68-.19-1.184-.19-1.858 0-3.165 1.325-1.306 1.326-1.306 3.211 0 .596.165 1.205.166.608.47 1.124h7.66q.29-.476.463-1.111.172-.635.172-1.244 0-.555-.166-1.197-.165-.642-.588-1.184l.516-.688q.502.74.754 1.488.251.748.277 1.502.027.794-.158 1.495-.186.7-.543 1.296-.158.304-.337.37-.179.067-.443.067H95.64q-.225 0-.443-.113-.219-.112-.324-.324-.344-.635-.53-1.29-.185-.655-.185-1.395 0-1.098.417-2.07.417-.973 1.131-1.694t1.676-1.144q.961-.424 2.041-.424zm-.12 4.378z" style="stroke-width:.0132292" transform="translate(-94.16 -141.756)"/></svg>